<?xml version="1.0" encoding="UTF-8"?>
<svg xmlns="http://www.w3.org/2000/svg" xmlns:xlink="http://www.w3.org/1999/xlink" viewBox="0 0 48 48" width="48px" height="48px">
<g id="surface44694766">
<path style=" stroke:none;fill-rule:nonzero;fill:rgb(1.960784%,8.627451%,14.901961%);fill-opacity:1;" d="M 24 4.800781 C 13.398438 4.800781 4.800781 13.398438 4.800781 24 C 4.800781 32.996094 10.996094 40.523438 19.347656 42.609375 C 19.257812 42.347656 19.199219 42.046875 19.199219 41.675781 L 19.199219 38.394531 C 18.421875 38.394531 17.113281 38.394531 16.789062 38.394531 C 15.472656 38.394531 14.304688 37.828125 13.738281 36.777344 C 13.109375 35.613281 13 33.828125 11.441406 32.738281 C 10.980469 32.375 11.332031 31.960938 11.867188 32.015625 C 12.847656 32.292969 13.664062 32.96875 14.433594 33.972656 C 15.199219 34.972656 15.558594 35.203125 16.988281 35.203125 C 17.679688 35.203125 18.71875 35.160156 19.691406 35.007812 C 20.21875 33.675781 21.125 32.449219 22.234375 31.867188 C 15.839844 31.210938 12.789062 28.03125 12.789062 23.710938 C 12.789062 21.851562 13.582031 20.054688 14.925781 18.539062 C 14.484375 17.035156 13.929688 13.96875 15.097656 12.800781 C 17.972656 12.800781 19.710938 14.664062 20.128906 15.167969 C 21.5625 14.679688 23.136719 14.398438 24.792969 14.398438 C 26.449219 14.398438 28.03125 14.679688 29.46875 15.171875 C 29.878906 14.671875 31.621094 12.800781 34.503906 12.800781 C 35.675781 13.96875 35.113281 17.050781 34.667969 18.550781 C 36.003906 20.0625 36.792969 21.855469 36.792969 23.710938 C 36.792969 28.027344 33.746094 31.207031 27.363281 31.867188 C 29.117188 32.785156 30.398438 35.359375 30.398438 37.300781 L 30.398438 41.675781 C 30.398438 41.839844 30.363281 41.960938 30.34375 42.105469 C 37.824219 39.480469 43.199219 32.378906 43.199219 24 C 43.199219 13.398438 34.601562 4.800781 24 4.800781 Z M 24 4.800781 "/>
</g>
</svg>
