<?xml version="1.0" encoding="UTF-8"?>
<svg xmlns="http://www.w3.org/2000/svg" xmlns:xlink="http://www.w3.org/1999/xlink" viewBox="0 0 48 48" width="48px" height="48px">
<g id="surface44647451">
<path style=" stroke:none;fill-rule:nonzero;fill:rgb(1.960784%,8.627451%,14.901961%);fill-opacity:1;" d="M 44.800781 11.097656 C 43.269531 11.777344 41.625 12.238281 39.898438 12.441406 C 41.660156 11.386719 43.011719 9.714844 43.648438 7.722656 C 42 8.699219 40.175781 9.410156 38.230469 9.792969 C 36.671875 8.132812 34.453125 7.097656 32 7.097656 C 27.285156 7.097656 23.464844 10.921875 23.464844 15.632812 C 23.464844 16.300781 23.542969 16.953125 23.6875 17.574219 C 16.59375 17.222656 10.304688 13.824219 6.09375 8.65625 C 5.363281 9.917969 4.941406 11.382812 4.941406 12.949219 C 4.941406 15.910156 6.445312 18.523438 8.734375 20.054688 C 7.335938 20.007812 6.019531 19.625 4.871094 18.984375 C 4.871094 19.023438 4.871094 19.054688 4.871094 19.09375 C 4.871094 23.230469 7.8125 26.679688 11.71875 27.460938 C 11 27.65625 10.246094 27.761719 9.46875 27.761719 C 8.917969 27.761719 8.382812 27.707031 7.863281 27.609375 C 8.949219 31 12.101562 33.46875 15.835938 33.535156 C 12.914062 35.824219 9.234375 37.191406 5.234375 37.191406 C 4.546875 37.191406 3.867188 37.152344 3.199219 37.070312 C 6.976562 39.492188 11.460938 40.902344 16.28125 40.902344 C 31.980469 40.902344 40.5625 27.898438 40.5625 16.621094 C 40.5625 16.25 40.554688 15.882812 40.539062 15.515625 C 42.207031 14.3125 43.65625 12.808594 44.800781 11.097656 Z M 44.800781 11.097656 "/>
</g>
</svg>
